<?xml version="1.0" encoding="iso-8859-1"?>
<!-- Generator: Adobe Illustrator 18.0.0, SVG Export Plug-In . SVG Version: 6.00 Build 0)  -->
<!DOCTYPE svg PUBLIC "-//W3C//DTD SVG 1.1//EN" "http://www.w3.org/Graphics/SVG/1.1/DTD/svg11.dtd">
<svg version="1.1" id="Capa_1" xmlns="http://www.w3.org/2000/svg" xmlns:xlink="http://www.w3.org/1999/xlink" x="0px" y="0px"
	 viewBox="0 0 297 297" style="enable-background:new 0 0 297 297;" xml:space="preserve">
<g>
	<path d="M269.542,35.892c0-4.956-4.032-8.988-8.988-8.988h-77.665c-4.956,0-8.988,4.032-8.988,8.988v14.541h95.642V35.892z"/>
	<path d="M93.584,233.486c36.462,0,66.126-29.664,66.126-66.126s-29.664-66.126-66.126-66.126s-66.126,29.664-66.126,66.126
		S57.122,233.486,93.584,233.486z M61.108,134.884c17.907-17.905,47.044-17.905,64.951,0c8.674,8.675,13.452,20.209,13.452,32.476
		s-4.777,23.801-13.453,32.475c-8.673,8.673-20.207,13.451-32.474,13.451s-23.801-4.777-32.475-13.451
		c-8.674-8.675-13.452-20.209-13.452-32.475C47.656,155.093,52.434,143.559,61.108,134.884z"/>
	<path d="M173.901,167.36c0,17.902-5.892,34.451-15.831,47.82H297V119.54H158.069C168.009,132.909,173.901,149.458,173.901,167.36z"
		/>
	<path d="M13.267,167.36c0-17.902,5.892-34.452,15.832-47.821H0v95.641h29.098C19.158,201.811,13.267,185.262,13.267,167.36z"/>
	<path d="M116.024,189.8c5.995-5.994,9.296-13.963,9.296-22.44c0-8.477-3.301-16.447-9.296-22.441
		c-5.994-5.995-13.962-9.295-22.44-9.295s-16.446,3.3-22.44,9.295c-5.995,5.994-9.296,13.963-9.296,22.441
		c0,8.476,3.301,16.446,9.296,22.44C83.517,202.174,103.65,202.174,116.024,189.8z"/>
	<path d="M280.655,64.623H16.345C7.332,64.623,0,71.955,0,80.968v24.38h42.598c13.878-11.431,31.644-18.305,50.985-18.305
		s37.107,6.874,50.985,18.305H297v-24.38C297,71.955,289.668,64.623,280.655,64.623z M252.508,92.359h-54.916
		c-3.919,0-7.096-3.177-7.096-7.096s3.177-7.096,7.096-7.096h54.916c3.919,0,7.096,3.177,7.096,7.096S256.427,92.359,252.508,92.359
		z"/>
	<path d="M93.584,247.678c-19.342,0-37.108-6.874-50.987-18.306H0v24.38c0,9.013,7.332,16.345,16.345,16.345h264.31
		c9.013,0,16.345-7.332,16.345-16.345v-24.38H144.57C130.692,240.803,112.926,247.678,93.584,247.678z"/>
</g>
<g>
</g>
<g>
</g>
<g>
</g>
<g>
</g>
<g>
</g>
<g>
</g>
<g>
</g>
<g>
</g>
<g>
</g>
<g>
</g>
<g>
</g>
<g>
</g>
<g>
</g>
<g>
</g>
<g>
</g>
</svg>
