<?xml version="1.0" encoding="iso-8859-1"?>
<!-- Generator: Adobe Illustrator 19.0.0, SVG Export Plug-In . SVG Version: 6.00 Build 0)  -->
<svg version="1.1" id="Layer_1" xmlns="http://www.w3.org/2000/svg" xmlns:xlink="http://www.w3.org/1999/xlink" x="0px" y="0px"
	 viewBox="0 0 495 495" style="enable-background:new 0 0 495 495;" xml:space="preserve">
<g>
	<path style="fill:#2488FF;" d="M247.471,314.297C233.009,325.682,214.791,332.5,195,332.5c-46.869,0-85-38.131-85-85
		s38.131-85,85-85c19.791,0,38.009,6.818,52.471,18.203c0.029-0.023,0.029-91.372,0.029-91.372H0v316.338h247.5
		C247.5,405.669,247.5,314.32,247.471,314.297z"/>
	<path style="fill:#005ECE;" d="M247.5,89.331v91.348c14.867-11.681,33.332-18.179,52.5-18.179c46.869,0,85,38.131,85,85
		s-38.131,85-85,85c-19.168,0-37.633-6.499-52.5-18.18v91.349H495V89.331H247.5z"/>
	<path style="fill:#FFCD00;" d="M280,247.5c0,27.078-12.742,51.22-32.529,66.797C262.367,326.001,280.832,332.5,300,332.5
		c46.869,0,85-38.131,85-85s-38.131-85-85-85c-19.168,0-37.633,6.499-52.5,18.179C267.257,196.279,280,220.422,280,247.5z"/>
	<path style="fill:#FF5023;" d="M280,247.5c0-27.078-12.743-51.221-32.529-66.797C233.009,169.318,214.791,162.5,195,162.5
		c-46.869,0-85,38.131-85,85s38.131,85,85,85c19.791,0,38.009-6.818,52.471-18.203C267.258,298.72,280,274.578,280,247.5z"/>
</g>
<g>
</g>
<g>
</g>
<g>
</g>
<g>
</g>
<g>
</g>
<g>
</g>
<g>
</g>
<g>
</g>
<g>
</g>
<g>
</g>
<g>
</g>
<g>
</g>
<g>
</g>
<g>
</g>
<g>
</g>
</svg>
