<?xml version="1.0" encoding="iso-8859-1"?>
<!-- Generator: Adobe Illustrator 19.0.0, SVG Export Plug-In . SVG Version: 6.00 Build 0)  -->
<svg version="1.1" id="Layer_1" xmlns="http://www.w3.org/2000/svg" xmlns:xlink="http://www.w3.org/1999/xlink" x="0px" y="0px"
	 viewBox="0 0 495 495" style="enable-background:new 0 0 495 495;" xml:space="preserve">
<g>
	<path style="fill:#FF3501;" d="M183.374,72.955V40h92.973V0h-97.973c-19.299,0-35,15.701-35,35v37.955H183.374z"/>
	<path style="fill:#2488FF;" d="M156.137,398.389v-20l0-107.323c0-12.976,2.578-25.358,7.237-36.673V72.955H29.128L55.197,495
		h108.177v-59.939C158.715,423.747,156.137,411.364,156.137,398.389z"/>
	<path style="fill:#005ECE;" d="M163.374,435.061V495h89.375C212.452,495,177.845,470.198,163.374,435.061z"/>
	<path style="fill:#005ECE;" d="M163.374,234.393c14.471-35.137,49.078-59.938,89.374-59.938h38.603l6.269-101.499H163.374V234.393z
		"/>
	<path style="fill:#FFDA44;" d="M163.374,234.393c-4.66,11.314-7.237,23.697-7.237,36.673v47.323h154.868V174.454h-58.256
		C212.452,174.454,177.845,199.255,163.374,234.393z"/>
	<path style="fill:#FFCD00;" d="M369.261,174.454h-58.256v143.935h154.868v-47.323C465.872,217.794,422.532,174.454,369.261,174.454
		z"/>
	<rect x="156.137" y="318.389" style="fill:#FF5023;" width="154.868" height="60"/>
	<rect x="311.004" y="318.389" style="fill:#FF3501;" width="154.868" height="60"/>
	<path style="fill:#FFCD00;" d="M156.137,378.389v20c0,12.975,2.577,25.358,7.237,36.672C177.845,470.198,212.452,495,252.749,495
		h116.512c53.271,0,96.611-43.34,96.611-96.611v-20H156.137z"/>
</g>
<g>
</g>
<g>
</g>
<g>
</g>
<g>
</g>
<g>
</g>
<g>
</g>
<g>
</g>
<g>
</g>
<g>
</g>
<g>
</g>
<g>
</g>
<g>
</g>
<g>
</g>
<g>
</g>
<g>
</g>
</svg>
