<svg id="Layer_1" viewBox="0 0 16 18" xmlns="http://www.w3.org/2000/svg">
<path d="M13 13.1667H3V11.5001H13V13.1667ZM13 9.83342H3V8.16675H13V9.83342ZM13 6.50008H3V4.83342H13V6.50008ZM0.5 17.3334L1.75 16.0834L3 17.3334L4.25 16.0834L5.5 17.3334L6.75 16.0834L8 17.3334L9.25 16.0834L10.5 17.3334L11.75 16.0834L13 17.3334L14.25 16.0834L15.5 17.3334V0.666748L14.25 1.91675L13 0.666748L11.75 1.91675L10.5 0.666748L9.25 1.91675L8 0.666748L6.75 1.91675L5.5 0.666748L4.25 1.91675L3 0.666748L1.75 1.91675L0.5 0.666748V17.3334Z" />
</svg>
