<?xml version="1.0" encoding="iso-8859-1"?>
<!-- Generator: Adobe Illustrator 19.0.0, SVG Export Plug-In . SVG Version: 6.00 Build 0)  -->
<svg version="1.1" id="Layer_1" xmlns="http://www.w3.org/2000/svg" xmlns:xlink="http://www.w3.org/1999/xlink" x="0px" y="0px"
	 viewBox="0 0 486.944 486.944" style="enable-background:new 0 0 486.944 486.944;" xml:space="preserve">
<g>
	<path style="fill:#FF9478;" d="M2.962,60l29.685,181.689c4.43,27.021,29.348,48.187,56.729,48.187h123.954V60H2.962z"/>
	<path style="fill:#FF7956;" d="M349.551,151.016c14.142,0,27.776,2.201,40.588,6.267L406.085,60H213.329v229.875h1.875
		c-0.048-1.471-0.081-2.947-0.081-4.429C215.123,211.322,275.427,151.017,349.551,151.016z"/>
	<path style="fill:#2488FF;" d="M37.488,433.41c0,29.519,24.016,53.534,53.535,53.534V379.875
		C61.503,379.875,37.488,403.891,37.488,433.41z"/>
	<path style="fill:#2488FF;" d="M349.553,419.875c-17.099,0-33.458-3.215-48.515-9.062c-3.213,6.87-5.019,14.525-5.019,22.597
		c0,29.519,24.015,53.534,53.534,53.534V419.875z"/>
	<path style="fill:#005ECE;" d="M91.022,379.875v107.069c29.519,0,53.534-24.015,53.534-53.534S120.541,379.875,91.022,379.875z"/>
	<path style="fill:#005ECE;" d="M349.553,419.875v67.069c29.519,0,53.535-24.015,53.535-53.534c0-8.072-1.806-15.727-5.019-22.597
		C383.011,416.66,366.651,419.875,349.553,419.875z"/>
	<path style="fill:#2488FF;" d="M449.898,40h31.894V0H415.92l-25.781,157.283c13.534,4.295,26.147,10.676,37.458,18.769L449.898,40z
		"/>
	<path style="fill:#2488FF;" d="M57.488,319.875v40h180.178c-8.076-12.101-14.242-25.578-18.066-40H57.488z"/>
	<path style="fill:#005ECE;" d="M441.844,305.446h-34.693c-1.204,21.981-4.427,43.277-9.821,61.42
		C419.699,353.69,436.189,331.564,441.844,305.446z"/>
	<path style="fill:#005ECE;" d="M257.262,305.446c5.655,26.118,22.145,48.244,44.514,61.42c-5.395-18.144-8.618-39.44-9.822-61.42
		H257.262z"/>
	<path style="fill:#005ECE;" d="M257.262,265.446h34.693c1.204-21.981,4.427-43.277,9.822-61.421
		C279.407,217.201,262.917,239.327,257.262,265.446z"/>
	<path style="fill:#005ECE;" d="M349.553,193.408c-5.992,8.59-15.104,33.166-17.53,72.038h17.478h17.581
		C364.657,226.574,355.545,201.998,349.553,193.408z"/>
	<path style="fill:#005ECE;" d="M367.082,305.446h-17.581h-17.478c2.426,38.872,11.538,63.448,17.53,72.037
		C355.545,368.894,364.657,344.318,367.082,305.446z"/>
	<path style="fill:#005ECE;" d="M441.844,265.446c-5.655-26.119-22.145-48.245-44.514-61.421c5.395,18.143,8.618,39.44,9.821,61.421
		H441.844z"/>
	<path style="fill:#ACCAEE;" d="M483.983,285.446c0-45.048-22.275-84.988-56.386-109.394c-11.311-8.093-23.924-14.473-37.458-18.769
		c-12.812-4.066-26.446-6.267-40.586-6.267C423.678,151.016,483.983,211.321,483.983,285.446
		c0,74.124-60.305,134.429-134.43,134.429c17.099,0,33.458-3.215,48.516-9.062C448.287,391.312,483.983,342.472,483.983,285.446z"/>
	<path style="fill:#ACCAEE;" d="M349.501,419.875v-42.468c0.017,0.024,0.035,0.053,0.052,0.077
		c-5.992-8.59-15.104-33.166-17.529-72.038h17.478v-40h-17.478c2.426-38.872,11.538-63.448,17.53-72.038
		c-0.017,0.024-0.035,0.053-0.052,0.077v-42.468c0.017,0,0.033-0.001,0.05-0.001c-74.124,0.001-134.428,60.305-134.428,134.43
		c0,1.483,0.033,2.958,0.081,4.429c0.336,10.334,1.844,20.377,4.396,30c3.824,14.422,9.99,27.899,18.066,40
		c15.275,22.887,37.376,40.843,63.372,50.938c15.057,5.847,31.416,9.062,48.513,9.062
		C349.534,419.875,349.518,419.875,349.501,419.875z M301.776,366.867c-22.369-13.176-38.859-35.302-44.514-61.42h34.693
		C293.159,327.427,296.382,348.723,301.776,366.867z M257.262,265.446c5.655-26.119,22.145-48.245,44.514-61.421
		c-5.395,18.144-8.618,39.44-9.822,61.421H257.262z"/>
	<path style="fill:#ACCAEE;" d="M397.33,366.866c5.395-18.143,8.618-39.44,9.821-61.42
		C405.947,327.427,402.724,348.723,397.33,366.866z"/>
	<path style="fill:#ACCAEE;" d="M407.151,265.446c-1.204-21.981-4.427-43.277-9.821-61.421
		C402.724,222.169,405.947,243.465,407.151,265.446z"/>
	<path style="fill:#8AB8EE;" d="M349.551,151.016c-0.017,0-0.033,0.001-0.05,0.001v42.468c0.017-0.024,0.035-0.053,0.052-0.077
		c5.992,8.59,15.104,33.166,17.53,72.038h-17.581v40h17.581c-2.426,38.872-11.538,63.448-17.529,72.037
		c-0.017-0.024-0.035-0.053-0.052-0.077v42.468c0.017,0,0.033,0.001,0.05,0.001c74.126,0,134.431-60.305,134.431-134.429
		C483.983,211.321,423.678,151.016,349.551,151.016z M407.151,305.446h34.693c-5.655,26.118-22.145,48.244-44.514,61.42
		C402.724,348.723,405.947,327.427,407.151,305.446z M397.33,204.025c22.369,13.176,38.859,35.302,44.514,61.421h-34.693
		C405.947,243.465,402.724,222.169,397.33,204.025z"/>
</g>
<g>
</g>
<g>
</g>
<g>
</g>
<g>
</g>
<g>
</g>
<g>
</g>
<g>
</g>
<g>
</g>
<g>
</g>
<g>
</g>
<g>
</g>
<g>
</g>
<g>
</g>
<g>
</g>
<g>
</g>
</svg>
