<?xml version="1.0" encoding="iso-8859-1"?>
<!-- Generator: Adobe Illustrator 19.0.0, SVG Export Plug-In . SVG Version: 6.00 Build 0)  -->
<svg version="1.1" id="Layer_1" xmlns="http://www.w3.org/2000/svg" xmlns:xlink="http://www.w3.org/1999/xlink" 
	 viewBox="0 0 495 495" style="enable-background:new 0 0 495 495;" xml:space="preserve">
<g>
	<rect y="130" style="fill:#00EED1;" width="217.5" height="189.897"/>
	<path style="fill:#00DDC2;" d="M360.57,186.141c27.506,0,53.105,8.31,74.43,22.542V130H217.5v189.897h8.65
		C226.514,246.082,286.671,186.141,360.57,186.141z"/>
	<polygon style="fill:#00CCB3;" points="435,130 435,40 217.5,40 0,40 0,130 217.5,130 	"/>
	<path style="fill:#FFDA44;" d="M346.899,382.175l-62.343-62.343l28.285-28.284l34.058,34.059l13.671-13.671V186.141
		c-73.9,0-134.056,59.941-134.421,133.756c-0.001,0.225-0.009,0.448-0.009,0.673c0,74.125,60.305,134.43,134.429,134.43v-86.495
		L346.899,382.175z"/>
	<path style="fill:#FFCD00;" d="M435,208.683c-21.325-14.232-46.924-22.542-74.43-22.542v125.795l38.829-38.828l28.284,28.284
		l-67.113,67.113V455C434.695,455,495,394.695,495,320.57C495,273.952,471.143,232.805,435,208.683z"/>
	<polygon style="fill:#2488FF;" points="346.899,325.607 312.842,291.548 284.557,319.832 346.899,382.175 360.57,368.505 
		427.684,301.392 399.399,273.108 360.57,311.936 	"/>
</g>
<g>
</g>
<g>
</g>
<g>
</g>
<g>
</g>
<g>
</g>
<g>
</g>
<g>
</g>
<g>
</g>
<g>
</g>
<g>
</g>
<g>
</g>
<g>
</g>
<g>
</g>
<g>
</g>
<g>
</g>
</svg>
