<?xml version="1.0" encoding="iso-8859-1"?>
<!-- Generator: Adobe Illustrator 19.0.0, SVG Export Plug-In . SVG Version: 6.00 Build 0)  -->
<svg version="1.1" id="Capa_1" xmlns="http://www.w3.org/2000/svg" xmlns:xlink="http://www.w3.org/1999/xlink" x="0px" y="0px"
	 viewBox="0 0 223 223" style="enable-background:new 0 0 223 223;" xml:space="preserve">
<g>
	<path d="M223,94.5c0-6.075-4.925-11-11-11h-63c-6.075,0-11,4.925-11,11v33c0,6.075,4.925,11,11,11h63c6.075,0,11-4.925,11-11V94.5z
		 M169.515,123.967c-7.082,0-12.823-5.741-12.823-12.823c0-7.082,5.741-12.823,12.823-12.823c7.082,0,12.823,5.741,12.823,12.823
		C182.338,118.225,176.597,123.967,169.515,123.967z"/>
	<path d="M123.509,68.5H205v-33c0-8.271-6.395-15-14.667-15h-175C7.062,20.5,0,27.229,0,35.5v152c0,8.271,7.062,15,15.333,15h175
		c8.271,0,14.667-6.729,14.667-15v-34h-81.342L123.509,68.5z"/>
</g>
<g>
</g>
<g>
</g>
<g>
</g>
<g>
</g>
<g>
</g>
<g>
</g>
<g>
</g>
<g>
</g>
<g>
</g>
<g>
</g>
<g>
</g>
<g>
</g>
<g>
</g>
<g>
</g>
<g>
</g>
</svg>
